<svg width="62" height="86" viewBox="0 0 62 86" fill="none" xmlns="http://www.w3.org/2000/svg">
<mask id="path-1-inside-1_62_301" fill="white">
<path fill-rule="evenodd" clip-rule="evenodd" d="M33.8241 7.98337C34.9014 7.17425 35.5982 5.88598 35.5982 4.43495C35.5982 1.9856 33.6126 0 31.1633 0C28.7139 0 26.7283 1.9856 26.7283 4.43495C26.7283 5.88583 27.425 7.17399 28.5021 7.98312V12.8318H17.3327C12.335 12.8318 8.19354 16.4981 7.45116 21.2878H5.66641C4.56184 21.2878 3.66641 22.1832 3.66641 23.2878V31.7056C3.66641 32.8102 4.56184 33.7056 5.66641 33.7056H7.21404V38.0276C7.21404 38.5799 7.66175 39.0276 8.21404 39.0276H54.1115C54.6638 39.0276 55.1115 38.5799 55.1115 38.0276V33.7056H56.6598C57.7644 33.7056 58.6598 32.8102 58.6598 31.7056V23.2878C58.6598 22.1832 57.7644 21.2878 56.6598 21.2878H55.1117C54.3693 16.4981 50.2279 12.8318 45.2302 12.8318H33.8241V7.98337ZM7.33437 43.9948H18.8661C16.2537 46.9136 14.6652 50.768 14.6652 54.9935C14.6652 64.1051 22.0516 71.4915 31.1632 71.4915C40.2748 71.4915 47.6612 64.1051 47.6612 54.9935C47.6612 50.768 46.0727 46.9136 43.4603 43.9948H54.8042C55.205 44.9664 55.5478 45.968 55.8283 46.9953L60.5022 48.2077C61.3841 48.4364 62 49.2324 62 50.1436V58.0422C62 58.9558 61.3809 59.7533 60.4958 59.9798L55.6347 61.2237C55.0998 62.9896 54.3798 64.675 53.4971 66.2574L56.8571 72.3462C57.2875 73.1262 57.1502 74.0968 56.5203 74.7267L50.8378 80.4092C50.2233 81.0236 49.2824 81.171 48.5095 80.7739L41.5586 77.2023C40.2913 77.7706 38.9695 78.239 37.6033 78.5977L36.1158 84.3324C35.887 85.2143 35.091 85.8302 34.1798 85.8302H26.2812C25.3676 85.8302 24.5701 85.2111 24.3437 84.326L22.7389 78.0546C21.6493 77.6809 20.5928 77.2359 19.5749 76.7251L12.8738 80.6365C12.0889 81.0946 11.0939 80.966 10.4513 80.3235L4.86178 74.7339C4.21609 74.0882 4.08972 73.0872 4.55469 72.3013L8.39655 65.8078C7.62852 64.3638 6.9944 62.8378 6.51074 61.2463L1.49784 59.946C0.615864 59.7172 0 58.9213 0 58.0101V50.1115C0 49.1979 0.619105 48.4004 1.5042 48.1739L6.32536 46.9402C6.6031 45.9322 6.9408 44.949 7.33437 43.9948ZM30.5724 44.8303C30.5622 44.8371 30.5522 44.844 30.5423 44.851C30.5369 44.8472 30.5314 44.8434 30.526 44.8397C30.5214 44.8366 30.5168 44.8334 30.5122 44.8303L26.3619 42.0348C25.0334 41.14 23.2446 42.0919 23.2446 43.6936V49.2846C23.2446 50.8863 25.0334 51.8382 26.3619 50.9434L30.5122 48.1479C30.5223 48.1411 30.5323 48.1342 30.5423 48.1272C30.5522 48.1342 30.5622 48.1411 30.5724 48.1479L34.7226 50.9434C36.0511 51.8382 37.84 50.8863 37.84 49.2846V43.6936C37.84 42.0919 36.0511 41.14 34.7226 42.0348L30.5724 44.8303ZM38.9211 25.9474C38.9211 25.0518 39.6471 24.3257 40.5428 24.3257H45.9485C46.8441 24.3257 47.5702 25.0518 47.5702 25.9474C47.5702 26.8431 46.8441 27.5691 45.9485 27.5691H40.5428C39.6471 27.5691 38.9211 26.8431 38.9211 25.9474ZM16.2171 25.9474C16.2171 25.0518 16.9432 24.3257 17.8388 24.3257H23.2446C24.1402 24.3257 24.8663 25.0518 24.8663 25.9474C24.8663 26.8431 24.1402 27.5692 23.2446 27.5692H17.8388C16.9432 27.5692 16.2171 26.8431 16.2171 25.9474Z"/>
</mask>
<path fill-rule="evenodd" clip-rule="evenodd" d="M33.8241 7.98337C34.9014 7.17425 35.5982 5.88598 35.5982 4.43495C35.5982 1.9856 33.6126 0 31.1633 0C28.7139 0 26.7283 1.9856 26.7283 4.43495C26.7283 5.88583 27.425 7.17399 28.5021 7.98312V12.8318H17.3327C12.335 12.8318 8.19354 16.4981 7.45116 21.2878H5.66641C4.56184 21.2878 3.66641 22.1832 3.66641 23.2878V31.7056C3.66641 32.8102 4.56184 33.7056 5.66641 33.7056H7.21404V38.0276C7.21404 38.5799 7.66175 39.0276 8.21404 39.0276H54.1115C54.6638 39.0276 55.1115 38.5799 55.1115 38.0276V33.7056H56.6598C57.7644 33.7056 58.6598 32.8102 58.6598 31.7056V23.2878C58.6598 22.1832 57.7644 21.2878 56.6598 21.2878H55.1117C54.3693 16.4981 50.2279 12.8318 45.2302 12.8318H33.8241V7.98337ZM7.33437 43.9948H18.8661C16.2537 46.9136 14.6652 50.768 14.6652 54.9935C14.6652 64.1051 22.0516 71.4915 31.1632 71.4915C40.2748 71.4915 47.6612 64.1051 47.6612 54.9935C47.6612 50.768 46.0727 46.9136 43.4603 43.9948H54.8042C55.205 44.9664 55.5478 45.968 55.8283 46.9953L60.5022 48.2077C61.3841 48.4364 62 49.2324 62 50.1436V58.0422C62 58.9558 61.3809 59.7533 60.4958 59.9798L55.6347 61.2237C55.0998 62.9896 54.3798 64.675 53.4971 66.2574L56.8571 72.3462C57.2875 73.1262 57.1502 74.0968 56.5203 74.7267L50.8378 80.4092C50.2233 81.0236 49.2824 81.171 48.5095 80.7739L41.5586 77.2023C40.2913 77.7706 38.9695 78.239 37.6033 78.5977L36.1158 84.3324C35.887 85.2143 35.091 85.8302 34.1798 85.8302H26.2812C25.3676 85.8302 24.5701 85.2111 24.3437 84.326L22.7389 78.0546C21.6493 77.6809 20.5928 77.2359 19.5749 76.7251L12.8738 80.6365C12.0889 81.0946 11.0939 80.966 10.4513 80.3235L4.86178 74.7339C4.21609 74.0882 4.08972 73.0872 4.55469 72.3013L8.39655 65.8078C7.62852 64.3638 6.9944 62.8378 6.51074 61.2463L1.49784 59.946C0.615864 59.7172 0 58.9213 0 58.0101V50.1115C0 49.1979 0.619105 48.4004 1.5042 48.1739L6.32536 46.9402C6.6031 45.9322 6.9408 44.949 7.33437 43.9948ZM30.5724 44.8303C30.5622 44.8371 30.5522 44.844 30.5423 44.851C30.5369 44.8472 30.5314 44.8434 30.526 44.8397C30.5214 44.8366 30.5168 44.8334 30.5122 44.8303L26.3619 42.0348C25.0334 41.14 23.2446 42.0919 23.2446 43.6936V49.2846C23.2446 50.8863 25.0334 51.8382 26.3619 50.9434L30.5122 48.1479C30.5223 48.1411 30.5323 48.1342 30.5423 48.1272C30.5522 48.1342 30.5622 48.1411 30.5724 48.1479L34.7226 50.9434C36.0511 51.8382 37.84 50.8863 37.84 49.2846V43.6936C37.84 42.0919 36.0511 41.14 34.7226 42.0348L30.5724 44.8303ZM38.9211 25.9474C38.9211 25.0518 39.6471 24.3257 40.5428 24.3257H45.9485C46.8441 24.3257 47.5702 25.0518 47.5702 25.9474C47.5702 26.8431 46.8441 27.5691 45.9485 27.5691H40.5428C39.6471 27.5691 38.9211 26.8431 38.9211 25.9474ZM16.2171 25.9474C16.2171 25.0518 16.9432 24.3257 17.8388 24.3257H23.2446C24.1402 24.3257 24.8663 25.0518 24.8663 25.9474C24.8663 26.8431 24.1402 27.5692 23.2446 27.5692H17.8388C16.9432 27.5692 16.2171 26.8431 16.2171 25.9474Z" fill="#846BAE"/>
<path d="M33.8241 7.98337L33.2235 7.18377L32.8241 7.48379V7.98337H33.8241ZM28.5021 7.98312H29.5021V7.4836L29.1027 7.18358L28.5021 7.98312ZM28.5021 12.8318V13.8318H29.5021V12.8318H28.5021ZM7.45116 21.2878V22.2878H8.30811L8.43936 21.4409L7.45116 21.2878ZM7.21404 33.7056H8.21404V32.7056H7.21404V33.7056ZM55.1115 33.7056V32.7056H54.1115V33.7056H55.1115ZM55.1117 21.2878L54.1235 21.4409L54.2548 22.2878H55.1117V21.2878ZM33.8241 12.8318H32.8241V13.8318H33.8241V12.8318ZM18.8661 43.9948L19.6112 44.6617L21.1032 42.9948H18.8661V43.9948ZM7.33437 43.9948V42.9948H6.66509L6.40991 43.6135L7.33437 43.9948ZM43.4603 43.9948V42.9948H41.2233L42.7152 44.6617L43.4603 43.9948ZM54.8042 43.9948L55.7287 43.6135L55.4735 42.9948H54.8042V43.9948ZM55.8283 46.9953L54.8637 47.2588L55.0164 47.8178L55.5773 47.9633L55.8283 46.9953ZM60.5022 48.2077L60.7532 47.2397L60.5022 48.2077ZM60.4958 59.9798L60.7437 60.9486L60.4958 59.9798ZM55.6347 61.2237L55.3868 60.2549L54.841 60.3946L54.6777 60.9338L55.6347 61.2237ZM53.4971 66.2574L52.6238 65.7702L52.3535 66.2548L52.6216 66.7405L53.4971 66.2574ZM56.8571 72.3462L57.7327 71.863V71.863L56.8571 72.3462ZM56.5203 74.7267L55.8131 74.0196L56.5203 74.7267ZM50.8378 80.4092L51.5449 81.1163H51.5449L50.8378 80.4092ZM48.5095 80.7739L48.9665 79.8844L48.9665 79.8844L48.5095 80.7739ZM41.5586 77.2023L42.0156 76.3129L41.5881 76.0932L41.1495 76.2899L41.5586 77.2023ZM37.6033 78.5977L37.3494 77.6304L36.7825 77.7792L36.6353 78.3466L37.6033 78.5977ZM36.1158 84.3324L37.0837 84.5834V84.5834L36.1158 84.3324ZM24.3437 84.326L23.3749 84.5739L24.3437 84.326ZM22.7389 78.0546L23.7077 77.8067L23.5739 77.2838L23.0633 77.1087L22.7389 78.0546ZM19.5749 76.7251L20.0234 75.8313L19.5389 75.5882L19.0708 75.8615L19.5749 76.7251ZM12.8738 80.6365L12.3697 79.7729L12.3696 79.7729L12.8738 80.6365ZM10.4513 80.3235L9.74423 81.0306H9.74423L10.4513 80.3235ZM4.86178 74.7339L4.15467 75.441H4.15467L4.86178 74.7339ZM4.55469 72.3013L5.41534 72.8105H5.41534L4.55469 72.3013ZM8.39655 65.8078L9.2572 66.317L9.54306 65.8338L9.27943 65.3382L8.39655 65.8078ZM6.51074 61.2463L7.46753 60.9555L7.30451 60.4191L6.76182 60.2783L6.51074 61.2463ZM1.49784 59.946L1.74892 58.9781H1.74892L1.49784 59.946ZM1.5042 48.1739L1.25629 47.2051H1.25629L1.5042 48.1739ZM6.32536 46.9402L6.57326 47.909L7.13532 47.7652L7.28943 47.2059L6.32536 46.9402ZM30.5423 44.851L29.9691 45.6704L30.5422 46.0712L31.1152 45.6705L30.5423 44.851ZM30.5724 44.8303L30.0137 44.0009H30.0137L30.5724 44.8303ZM30.526 44.8397L29.9604 45.6644L29.9608 45.6647L30.526 44.8397ZM30.5122 44.8303L31.071 44.001L31.0708 44.0009L30.5122 44.8303ZM26.3619 42.0348L25.8032 42.8642L26.3619 42.0348ZM26.3619 50.9434L26.9205 51.7728L26.3619 50.9434ZM30.5122 48.1479L31.0708 48.9773H31.0708L30.5122 48.1479ZM30.5423 48.1272L31.1152 47.3077L30.5423 46.9071L29.9693 47.3077L30.5423 48.1272ZM30.5724 48.1479L30.0137 48.9773H30.0137L30.5724 48.1479ZM34.7226 50.9434L34.164 51.7728H34.164L34.7226 50.9434ZM34.7226 42.0348L35.2813 42.8642L34.7226 42.0348ZM34.5982 4.43495C34.5982 5.55816 34.0602 6.5554 33.2235 7.18377L34.4246 8.78296C35.7426 7.7931 36.5982 6.21381 36.5982 4.43495H34.5982ZM31.1633 1C33.0603 1 34.5982 2.53788 34.5982 4.43495H36.5982C36.5982 1.43331 34.1649 -1 31.1633 -1V1ZM27.7283 4.43495C27.7283 2.53788 29.2662 1 31.1633 1V-1C28.1616 -1 25.7283 1.43331 25.7283 4.43495H27.7283ZM29.1027 7.18358C28.2662 6.5552 27.7283 5.55804 27.7283 4.43495H25.7283C25.7283 6.21362 26.5838 7.79278 27.9015 8.78265L29.1027 7.18358ZM29.5021 12.8318V7.98312H27.5021V12.8318H29.5021ZM17.3327 13.8318H28.5021V11.8318H17.3327V13.8318ZM8.43936 21.4409C9.10737 17.131 12.8357 13.8318 17.3327 13.8318V11.8318C11.8343 11.8318 7.27971 15.8651 6.46296 21.1346L8.43936 21.4409ZM5.66641 22.2878H7.45116V20.2878H5.66641V22.2878ZM4.66641 23.2878C4.66641 22.7355 5.11412 22.2878 5.66641 22.2878V20.2878C4.00955 20.2878 2.66641 21.6309 2.66641 23.2878H4.66641ZM4.66641 31.7056V23.2878H2.66641V31.7056H4.66641ZM5.66641 32.7056C5.11412 32.7056 4.66641 32.2579 4.66641 31.7056H2.66641C2.66641 33.3625 4.00955 34.7056 5.66641 34.7056V32.7056ZM7.21404 32.7056H5.66641V34.7056H7.21404V32.7056ZM8.21404 38.0276V33.7056H6.21404V38.0276H8.21404ZM8.21404 38.0276H8.21404H6.21404C6.21404 39.1321 7.10947 40.0276 8.21404 40.0276V38.0276ZM54.1115 38.0276H8.21404V40.0276H54.1115V38.0276ZM54.1115 38.0276V40.0276C55.2161 40.0276 56.1115 39.1321 56.1115 38.0276H54.1115ZM54.1115 33.7056V38.0276H56.1115V33.7056H54.1115ZM56.6598 32.7056H55.1115V34.7056H56.6598V32.7056ZM57.6598 31.7056C57.6598 32.2579 57.2121 32.7056 56.6598 32.7056V34.7056C58.3167 34.7056 59.6598 33.3625 59.6598 31.7056H57.6598ZM57.6598 23.2878V31.7056H59.6598V23.2878H57.6598ZM56.6598 22.2878C57.2121 22.2878 57.6598 22.7355 57.6598 23.2878H59.6598C59.6598 21.6309 58.3167 20.2878 56.6598 20.2878V22.2878ZM55.1117 22.2878H56.6598V20.2878H55.1117V22.2878ZM45.2302 13.8318C49.7272 13.8318 53.4555 17.1311 54.1235 21.4409L56.0999 21.1346C55.2832 15.8651 50.7286 11.8318 45.2302 11.8318V13.8318ZM33.8241 13.8318H45.2302V11.8318H33.8241V13.8318ZM32.8241 7.98337V12.8318H34.8241V7.98337H32.8241ZM18.8661 42.9948H7.33437V44.9948H18.8661V42.9948ZM15.6652 54.9935C15.6652 51.0235 17.1566 47.4042 19.6112 44.6617L18.121 43.3279C15.3508 46.4229 13.6652 50.5125 13.6652 54.9935H15.6652ZM31.1632 70.4915C22.6039 70.4915 15.6652 63.5528 15.6652 54.9935H13.6652C13.6652 64.6573 21.4993 72.4915 31.1632 72.4915V70.4915ZM46.6612 54.9935C46.6612 63.5528 39.7225 70.4915 31.1632 70.4915V72.4915C40.8271 72.4915 48.6612 64.6573 48.6612 54.9935H46.6612ZM42.7152 44.6617C45.1698 47.4042 46.6612 51.0235 46.6612 54.9935H48.6612C48.6612 50.5125 46.9756 46.4229 44.2055 43.3279L42.7152 44.6617ZM54.8042 42.9948H43.4603V44.9948H54.8042V42.9948ZM56.793 46.7318C56.5014 45.6642 56.1451 44.6232 55.7287 43.6135L53.8798 44.376C54.2648 45.3096 54.5941 46.2718 54.8637 47.2588L56.793 46.7318ZM60.7532 47.2397L56.0794 46.0273L55.5773 47.9633L60.2511 49.1756L60.7532 47.2397ZM63 50.1436C63 48.7768 62.0762 47.5829 60.7532 47.2397L60.2511 49.1756C60.6921 49.29 61 49.688 61 50.1436H63ZM63 58.0422V50.1436H61V58.0422H63ZM60.7437 60.9486C62.0713 60.6088 63 59.4126 63 58.0422H61C61 58.499 60.6905 58.8977 60.2479 59.011L60.7437 60.9486ZM55.8826 62.1925L60.7437 60.9486L60.2479 59.011L55.3868 60.2549L55.8826 62.1925ZM54.3704 66.7445C55.2876 65.1004 56.0359 63.3489 56.5918 61.5136L54.6777 60.9338C54.1638 62.6303 53.472 64.2497 52.6238 65.7702L54.3704 66.7445ZM57.7327 71.863L54.3726 65.7742L52.6216 66.7405L55.9816 72.8293L57.7327 71.863ZM57.2274 75.4338C58.1723 74.4889 58.3783 73.033 57.7327 71.863L55.9816 72.8293C56.1968 73.2193 56.1281 73.7046 55.8131 74.0196L57.2274 75.4338ZM51.5449 81.1163L57.2274 75.4338L55.8131 74.0196L50.1307 79.7021L51.5449 81.1163ZM48.0525 81.6633C49.2118 82.2591 50.6232 82.038 51.5449 81.1163L50.1307 79.7021C49.8234 80.0093 49.353 80.083 48.9665 79.8844L48.0525 81.6633ZM41.1016 78.0918L48.0525 81.6633L48.9665 79.8844L42.0156 76.3129L41.1016 78.0918ZM37.8572 79.5649C39.2771 79.1922 40.6508 78.7053 41.9678 78.1148L41.1495 76.2899C39.9318 76.8358 38.662 77.2859 37.3494 77.6304L37.8572 79.5649ZM37.0837 84.5834L38.5713 78.8487L36.6353 78.3466L35.1478 84.0813L37.0837 84.5834ZM34.1798 86.8302C35.5466 86.8302 36.7406 85.9064 37.0837 84.5834L35.1478 84.0813C35.0334 84.5223 34.6354 84.8302 34.1798 84.8302V86.8302ZM26.2812 86.8302H34.1798V84.8302H26.2812V86.8302ZM23.3749 84.5739C23.7146 85.9015 24.9108 86.8302 26.2812 86.8302V84.8302C25.8244 84.8302 25.4257 84.5206 25.3124 84.0781L23.3749 84.5739ZM21.7701 78.3025L23.3749 84.5739L25.3124 84.0781L23.7077 77.8067L21.7701 78.3025ZM19.1264 77.6189C20.1841 78.1496 21.282 78.6121 22.4144 79.0005L23.0633 77.1087C22.0165 76.7497 21.0014 76.3221 20.0234 75.8313L19.1264 77.6189ZM13.3779 81.5002L20.079 77.5888L19.0708 75.8615L12.3697 79.7729L13.3779 81.5002ZM9.74423 81.0306C10.7081 81.9944 12.2006 82.1873 13.3779 81.5002L12.3696 79.7729C11.9772 80.0019 11.4797 79.9376 11.1584 79.6164L9.74423 81.0306ZM4.15467 75.441L9.74423 81.0306L11.1584 79.6164L5.56889 74.0268L4.15467 75.441ZM3.69405 71.7921C2.99659 72.9709 3.18614 74.4725 4.15467 75.441L5.56889 74.0268C5.24604 73.7039 5.18286 73.2034 5.41534 72.8105L3.69405 71.7921ZM7.5359 65.2986L3.69404 71.7921L5.41534 72.8105L9.2572 66.317L7.5359 65.2986ZM5.55395 61.5371C6.05662 63.1911 6.71563 64.777 7.51367 66.2774L9.27943 65.3382C8.54142 63.9507 7.93218 62.4845 7.46753 60.9555L5.55395 61.5371ZM1.24676 60.914L6.25966 62.2143L6.76182 60.2783L1.74892 58.9781L1.24676 60.914ZM-1 58.0101C-1 59.3768 -0.0762044 60.5708 1.24676 60.914L1.74892 58.9781C1.30793 58.8637 1 58.4657 1 58.0101H-1ZM-1 50.1115V58.0101H1V50.1115H-1ZM1.25629 47.2051C-0.0713422 47.5449 -1 48.7411 -1 50.1115H1C1 49.6547 1.30955 49.2559 1.7521 49.1427L1.25629 47.2051ZM6.07746 45.9714L1.25629 47.2051L1.7521 49.1427L6.57326 47.909L6.07746 45.9714ZM6.40991 43.6135C6.0009 44.6052 5.64994 45.627 5.36128 46.6746L7.28943 47.2059C7.55627 46.2374 7.8807 45.2929 8.25883 44.3761L6.40991 43.6135ZM31.1152 45.6705C31.1205 45.6668 31.1258 45.6632 31.131 45.6597L30.0137 44.0009C29.9987 44.011 29.9839 44.0212 29.9693 44.0314L31.1152 45.6705ZM29.9608 45.6647C29.9637 45.6666 29.9665 45.6686 29.9691 45.6704L31.1154 44.0315C31.1073 44.0258 31.0992 44.0202 31.0912 44.0147L29.9608 45.6647ZM29.9534 45.6596C29.9557 45.6612 29.958 45.6628 29.9604 45.6644L31.0916 44.015C31.0848 44.0103 31.0779 44.0057 31.071 44.001L29.9534 45.6596ZM25.8032 42.8642L29.9535 45.6597L31.0708 44.0009L26.9205 41.2054L25.8032 42.8642ZM24.2446 43.6936C24.2446 42.8927 25.139 42.4168 25.8032 42.8642L26.9205 41.2054C24.9279 39.8632 22.2446 41.291 22.2446 43.6936H24.2446ZM24.2446 49.2846V43.6936H22.2446V49.2846H24.2446ZM25.8032 50.114C25.139 50.5614 24.2446 50.0855 24.2446 49.2846H22.2446C22.2446 51.6872 24.9279 53.115 26.9205 51.7728L25.8032 50.114ZM29.9535 47.3185L25.8032 50.114L26.9205 51.7728L31.0708 48.9773L29.9535 47.3185ZM29.9693 47.3077C29.9638 47.3115 29.9586 47.3151 29.9535 47.3185L31.0708 48.9773C31.086 48.9671 31.1008 48.9569 31.1152 48.9468L29.9693 47.3077ZM31.131 47.3185C31.1258 47.315 31.1205 47.3114 31.1152 47.3077L29.9693 48.9468C29.9839 48.957 29.9987 48.9672 30.0137 48.9773L31.131 47.3185ZM35.2813 50.114L31.131 47.3185L30.0137 48.9773L34.164 51.7728L35.2813 50.114ZM36.84 49.2846C36.84 50.0855 35.9455 50.5614 35.2813 50.114L34.164 51.7728C36.1567 53.115 38.84 51.6872 38.84 49.2846H36.84ZM36.84 43.6936V49.2846H38.84V43.6936H36.84ZM35.2813 42.8642C35.9455 42.4168 36.84 42.8927 36.84 43.6936H38.84C38.84 41.291 36.1567 39.8632 34.164 41.2054L35.2813 42.8642ZM31.131 45.6597L35.2813 42.8642L34.164 41.2054L30.0137 44.0009L31.131 45.6597ZM40.5428 23.3257C39.0949 23.3257 37.9211 24.4995 37.9211 25.9474H39.9211C39.9211 25.6041 40.1994 25.3257 40.5428 25.3257V23.3257ZM45.9485 23.3257H40.5428V25.3257H45.9485V23.3257ZM48.5702 25.9474C48.5702 24.4995 47.3964 23.3257 45.9485 23.3257V25.3257C46.2919 25.3257 46.5702 25.6041 46.5702 25.9474H48.5702ZM45.9485 28.5691C47.3964 28.5691 48.5702 27.3954 48.5702 25.9474H46.5702C46.5702 26.2908 46.2919 26.5691 45.9485 26.5691V28.5691ZM40.5428 28.5691H45.9485V26.5691H40.5428V28.5691ZM37.9211 25.9474C37.9211 27.3954 39.0949 28.5691 40.5428 28.5691V26.5691C40.1994 26.5691 39.9211 26.2908 39.9211 25.9474H37.9211ZM17.8388 23.3257C16.3909 23.3257 15.2171 24.4995 15.2171 25.9474H17.2171C17.2171 25.6041 17.4955 25.3257 17.8388 25.3257V23.3257ZM23.2446 23.3257H17.8388V25.3257H23.2446V23.3257ZM25.8663 25.9474C25.8663 24.4995 24.6925 23.3257 23.2446 23.3257V25.3257C23.5879 25.3257 23.8663 25.6041 23.8663 25.9474H25.8663ZM23.2446 28.5692C24.6925 28.5692 25.8663 27.3954 25.8663 25.9474H23.8663C23.8663 26.2908 23.5879 26.5692 23.2446 26.5692V28.5692ZM17.8388 28.5692H23.2446V26.5692H17.8388V28.5692ZM15.2171 25.9474C15.2171 27.3954 16.3909 28.5692 17.8388 28.5692V26.5692C17.4955 26.5692 17.2171 26.2908 17.2171 25.9474H15.2171Z" fill="white" mask="url(#path-1-inside-1_62_301)"/>
</svg>
