<svg width="62" height="80" viewBox="0 0 62 80" fill="none" xmlns="http://www.w3.org/2000/svg">
<mask id="path-1-inside-1_62_357" fill="white">
<path fill-rule="evenodd" clip-rule="evenodd" d="M24.708 7.24849C25.4978 6.26927 25.8335 4.94348 25.501 3.63001C24.9399 1.41282 22.6876 0.0703376 20.4704 0.631485C18.2532 1.19263 16.9107 3.44492 17.4719 5.66211C17.8043 6.97548 18.7301 7.98193 19.8905 8.46759L21.0013 12.8567L11.5327 15.2531C6.87844 16.4311 3.82034 20.695 3.99063 25.3067L2.3958 25.7103C1.325 25.9813 0.676632 27.0691 0.947641 28.1399L2.81116 35.5029C3.08217 36.5738 4.16993 37.2221 5.24073 36.9511L6.5132 36.6291L7.48709 40.4771C7.62259 41.0125 8.16647 41.3367 8.70188 41.2012L50.1204 30.7186C50.6558 30.583 50.98 30.0392 50.8445 29.5038L49.8706 25.6557L51.1437 25.3335C52.2145 25.0625 52.8629 23.9748 52.5919 22.904L50.7284 15.5409C50.4574 14.4701 49.3696 13.8217 48.2988 14.0927L46.9181 14.4422C44.874 10.3048 40.1557 8.00892 35.5015 9.18687L25.8188 11.6374L24.708 7.24849ZM41.6723 21.8507C41.7833 21.2732 41.7725 20.6629 41.6187 20.0551C41.0576 17.8379 38.8053 16.4955 36.5881 17.0566C34.3709 17.6178 33.0284 19.87 33.5896 22.0872C33.7325 22.6517 33.985 23.1596 34.3186 23.5937C34.7478 22.2943 35.9146 21.1944 37.4729 20.8C39.0821 20.3927 40.6821 20.8459 41.6723 21.8507ZM16.4317 26.1253C14.9455 26.5015 13.8154 27.5194 13.3417 28.74C13.0579 28.3373 12.8417 27.8768 12.7136 27.3707C12.1525 25.1536 13.495 22.9013 15.7121 22.3401C17.9293 21.779 20.1816 23.1215 20.7428 25.3387C20.9124 26.009 20.9081 26.6826 20.7581 27.3117C19.7815 26.2127 18.1117 25.7001 16.4317 26.1253ZM19.418 43.2734L8.97936 45.9153C8.84171 46.8693 8.76127 47.8366 8.74079 48.8127L4.74959 50.9848C3.94712 51.4216 3.5426 52.3466 3.76676 53.2322L5.52594 60.1831C5.7495 61.0664 6.54184 61.687 7.45299 61.6923L12.1861 61.7203C12.9885 63.0502 13.9122 64.2863 14.9382 65.4174L12.9773 72.0769C12.7193 72.9529 13.0874 73.8923 13.8718 74.3598L20.0361 78.0341C20.8166 78.4993 21.8128 78.3799 22.4612 77.7432L27.5582 72.7389C28.5965 72.9681 29.6549 73.1289 30.7268 73.2176L33.5671 78.4365C34.0038 79.2389 34.9288 79.6435 35.8145 79.4193L42.7653 77.6601C43.6486 77.4366 44.2692 76.6442 44.2746 75.7331L44.3067 70.3037C45.4612 69.6661 46.5504 68.9392 47.5673 68.1345L54.5835 69.7534C55.4303 69.9487 56.3062 69.575 56.7511 68.8286L60.4927 62.5514C60.9488 61.7862 60.8438 60.8116 60.2352 60.161L55.8668 55.4919C56.3033 53.8573 56.569 52.1666 56.6486 50.4455L60.6735 48.2551C61.476 47.8183 61.8805 46.8933 61.6563 46.0077L59.8972 39.0568C59.6736 38.1735 58.8813 37.5529 57.9701 37.5476L53.5642 37.5215C53.0748 36.6558 52.535 35.8277 51.9496 35.04L41.681 37.6388C44.7145 39.6825 47.0355 42.8076 48.0035 46.6326C50.091 54.8805 45.0969 63.259 36.849 65.3465C28.6011 67.434 20.2225 62.4399 18.1351 54.192C17.167 50.367 17.7219 46.514 19.418 43.2734Z"/>
</mask>
<path fill-rule="evenodd" clip-rule="evenodd" d="M24.708 7.24849C25.4978 6.26927 25.8335 4.94348 25.501 3.63001C24.9399 1.41282 22.6876 0.0703376 20.4704 0.631485C18.2532 1.19263 16.9107 3.44492 17.4719 5.66211C17.8043 6.97548 18.7301 7.98193 19.8905 8.46759L21.0013 12.8567L11.5327 15.2531C6.87844 16.4311 3.82034 20.695 3.99063 25.3067L2.3958 25.7103C1.325 25.9813 0.676632 27.0691 0.947641 28.1399L2.81116 35.5029C3.08217 36.5738 4.16993 37.2221 5.24073 36.9511L6.5132 36.6291L7.48709 40.4771C7.62259 41.0125 8.16647 41.3367 8.70188 41.2012L50.1204 30.7186C50.6558 30.583 50.98 30.0392 50.8445 29.5038L49.8706 25.6557L51.1437 25.3335C52.2145 25.0625 52.8629 23.9748 52.5919 22.904L50.7284 15.5409C50.4574 14.4701 49.3696 13.8217 48.2988 14.0927L46.9181 14.4422C44.874 10.3048 40.1557 8.00892 35.5015 9.18687L25.8188 11.6374L24.708 7.24849ZM41.6723 21.8507C41.7833 21.2732 41.7725 20.6629 41.6187 20.0551C41.0576 17.8379 38.8053 16.4955 36.5881 17.0566C34.3709 17.6178 33.0284 19.87 33.5896 22.0872C33.7325 22.6517 33.985 23.1596 34.3186 23.5937C34.7478 22.2943 35.9146 21.1944 37.4729 20.8C39.0821 20.3927 40.6821 20.8459 41.6723 21.8507ZM16.4317 26.1253C14.9455 26.5015 13.8154 27.5194 13.3417 28.74C13.0579 28.3373 12.8417 27.8768 12.7136 27.3707C12.1525 25.1536 13.495 22.9013 15.7121 22.3401C17.9293 21.779 20.1816 23.1215 20.7428 25.3387C20.9124 26.009 20.9081 26.6826 20.7581 27.3117C19.7815 26.2127 18.1117 25.7001 16.4317 26.1253ZM19.418 43.2734L8.97936 45.9153C8.84171 46.8693 8.76127 47.8366 8.74079 48.8127L4.74959 50.9848C3.94712 51.4216 3.5426 52.3466 3.76676 53.2322L5.52594 60.1831C5.7495 61.0664 6.54184 61.687 7.45299 61.6923L12.1861 61.7203C12.9885 63.0502 13.9122 64.2863 14.9382 65.4174L12.9773 72.0769C12.7193 72.9529 13.0874 73.8923 13.8718 74.3598L20.0361 78.0341C20.8166 78.4993 21.8128 78.3799 22.4612 77.7432L27.5582 72.7389C28.5965 72.9681 29.6549 73.1289 30.7268 73.2176L33.5671 78.4365C34.0038 79.2389 34.9288 79.6435 35.8145 79.4193L42.7653 77.6601C43.6486 77.4366 44.2692 76.6442 44.2746 75.7331L44.3067 70.3037C45.4612 69.6661 46.5504 68.9392 47.5673 68.1345L54.5835 69.7534C55.4303 69.9487 56.3062 69.575 56.7511 68.8286L60.4927 62.5514C60.9488 61.7862 60.8438 60.8116 60.2352 60.161L55.8668 55.4919C56.3033 53.8573 56.569 52.1666 56.6486 50.4455L60.6735 48.2551C61.476 47.8183 61.8805 46.8933 61.6563 46.0077L59.8972 39.0568C59.6736 38.1735 58.8813 37.5529 57.9701 37.5476L53.5642 37.5215C53.0748 36.6558 52.535 35.8277 51.9496 35.04L41.681 37.6388C44.7145 39.6825 47.0355 42.8076 48.0035 46.6326C50.091 54.8805 45.0969 63.259 36.849 65.3465C28.6011 67.434 20.2225 62.4399 18.1351 54.192C17.167 50.367 17.7219 46.514 19.418 43.2734Z" fill="white"/>
<path d="M24.708 7.24849L23.9296 6.62069L23.616 7.00955L23.7386 7.49384L24.708 7.24849ZM19.8905 8.46759L20.8599 8.22224L20.7374 7.73798L20.2766 7.54512L19.8905 8.46759ZM21.0013 12.8567L21.2467 13.8261L22.2161 13.5808L21.9708 12.6113L21.0013 12.8567ZM11.5327 15.2531L11.2874 14.2837L11.5327 15.2531ZM3.99063 25.3067L4.23598 26.2761L5.01978 26.0777L4.98995 25.2698L3.99063 25.3067ZM0.947641 28.1399L-0.0217922 28.3852L0.947641 28.1399ZM2.81116 35.5029L3.78059 35.2576L2.81116 35.5029ZM5.24073 36.9511L5.48609 37.9205L5.24073 36.9511ZM6.5132 36.6291L7.48263 36.3837L7.23728 35.4143L6.26784 35.6596L6.5132 36.6291ZM49.8706 25.6557L49.6253 24.6863L48.6558 24.9317L48.9012 25.9011L49.8706 25.6557ZM46.9181 14.4422L46.0215 14.8851L46.3796 15.61L47.1634 15.4116L46.9181 14.4422ZM25.8188 11.6374L24.8494 11.8828L25.0947 12.8522L26.0642 12.6069L25.8188 11.6374ZM41.6723 21.8507L40.96 22.5526L42.2951 23.9073L42.6543 22.0395L41.6723 21.8507ZM34.3186 23.5937L33.5257 24.2031L34.6761 25.6998L35.2681 23.9073L34.3186 23.5937ZM13.3417 28.74L12.5242 29.3161L13.5989 30.8412L14.2739 29.1018L13.3417 28.74ZM20.7581 27.3117L20.0106 27.9759L21.2858 29.4109L21.7309 27.5436L20.7581 27.3117ZM8.97936 45.9153L8.73401 44.9459L8.08519 45.1101L7.98961 45.7725L8.97936 45.9153ZM19.418 43.2734L20.304 43.7371L21.3413 41.7551L19.1727 42.3039L19.418 43.2734ZM8.74079 48.8127L9.21881 49.6911L9.7284 49.4137L9.74057 48.8337L8.74079 48.8127ZM4.74959 50.9848L4.27157 50.1065L4.27157 50.1065L4.74959 50.9848ZM7.45299 61.6923L7.4589 60.6924L7.45299 61.6923ZM12.1861 61.7203L13.0423 61.2037L12.7527 60.7236L12.192 60.7203L12.1861 61.7203ZM14.9382 65.4174L15.8975 65.6999L16.0561 65.1613L15.6789 64.7455L14.9382 65.4174ZM12.9773 72.0769L12.018 71.7944L12.018 71.7944L12.9773 72.0769ZM13.8718 74.3598L14.3838 73.5008L14.3838 73.5008L13.8718 74.3598ZM20.0361 78.0341L19.5241 78.893L19.5241 78.893L20.0361 78.0341ZM22.4612 77.7432L21.7607 77.0296L21.7606 77.0297L22.4612 77.7432ZM27.5582 72.7389L27.7737 71.7624L27.2444 71.6456L26.8576 72.0254L27.5582 72.7389ZM30.7268 73.2176L31.6052 72.7395L31.3472 72.2655L30.8093 72.221L30.7268 73.2176ZM33.5671 78.4365L32.6887 78.9145L33.5671 78.4365ZM44.2746 75.7331L43.2746 75.7272L43.2746 75.7272L44.2746 75.7331ZM44.3067 70.3037L43.8232 69.4283L43.3102 69.7117L43.3067 70.2978L44.3067 70.3037ZM47.5673 68.1345L47.7922 67.1601L47.3238 67.0521L46.9468 67.3503L47.5673 68.1345ZM54.5835 69.7534L54.3587 70.7278L54.3587 70.7278L54.5835 69.7534ZM56.7511 68.8286L57.6101 69.3406L56.7511 68.8286ZM60.4927 62.5514L59.6337 62.0394L59.6337 62.0394L60.4927 62.5514ZM60.2352 60.161L60.9654 59.4778L60.9654 59.4778L60.2352 60.161ZM55.8668 55.4919L54.9006 55.2339L54.7575 55.77L55.1365 56.1751L55.8668 55.4919ZM56.6486 50.4455L56.1706 49.5672L55.6757 49.8365L55.6497 50.3993L56.6486 50.4455ZM60.6735 48.2551L61.1515 49.1334L60.6735 48.2551ZM61.6563 46.0077L62.6258 45.7623L61.6563 46.0077ZM59.8972 39.0568L58.9277 39.3022L59.8972 39.0568ZM57.9701 37.5476L57.9642 38.5475L57.9701 37.5476ZM53.5642 37.5215L52.6936 38.0136L52.9788 38.5181L53.5582 38.5215L53.5642 37.5215ZM51.9496 35.04L52.7523 34.4435L52.3531 33.9063L51.7043 34.0705L51.9496 35.04ZM41.681 37.6388L41.4356 36.6694L39.267 37.2183L41.1223 38.4682L41.681 37.6388ZM24.5316 3.87537C24.7836 4.87103 24.5305 5.87574 23.9296 6.62069L25.4864 7.87629C26.4651 6.6628 26.8833 5.01593 26.4705 3.38466L24.5316 3.87537ZM20.7158 1.60092C22.3975 1.17528 24.106 2.19358 24.5316 3.87537L26.4705 3.38466C25.7738 0.632067 22.9776 -1.0346 20.2251 -0.337949L20.7158 1.60092ZM18.4413 5.41675C18.0157 3.73497 19.034 2.02656 20.7158 1.60092L20.2251 -0.337949C17.4725 0.358704 15.8058 3.15487 16.5024 5.90746L18.4413 5.41675ZM20.2766 7.54512C19.3938 7.17565 18.6933 6.41235 18.4413 5.41675L16.5024 5.90746C16.9153 7.53861 18.0664 8.78822 19.5044 9.39006L20.2766 7.54512ZM21.9708 12.6113L20.8599 8.22224L18.9211 8.71294L20.0319 13.102L21.9708 12.6113ZM11.7781 16.2225L21.2467 13.8261L20.756 11.8873L11.2874 14.2837L11.7781 16.2225ZM4.98995 25.2698C4.8367 21.1196 7.59039 17.2824 11.7781 16.2225L11.2874 14.2837C6.16648 15.5797 2.80398 20.2705 2.99131 25.3436L4.98995 25.2698ZM2.64116 26.6797L4.23598 26.2761L3.74528 24.3372L2.15045 24.7409L2.64116 26.6797ZM1.91708 27.8945C1.78157 27.3591 2.10575 26.8152 2.64116 26.6797L2.15045 24.7409C0.544239 25.1474 -0.428307 26.779 -0.0217922 28.3852L1.91708 27.8945ZM3.78059 35.2576L1.91708 27.8945L-0.0217922 28.3852L1.84173 35.7483L3.78059 35.2576ZM4.99538 35.9817C4.45998 36.1172 3.9161 35.793 3.78059 35.2576L1.84173 35.7483C2.24824 37.3545 3.87988 38.3271 5.48609 37.9205L4.99538 35.9817ZM6.26784 35.6596L4.99538 35.9817L5.48609 37.9205L6.75855 37.5985L6.26784 35.6596ZM8.45652 40.2317L7.48263 36.3837L5.54376 36.8744L6.51766 40.7224L8.45652 40.2317ZM8.45652 40.2317L8.45652 40.2317L6.51766 40.7224C6.78867 41.7932 7.87642 42.4416 8.94723 42.1706L8.45652 40.2317ZM49.8751 29.7491L8.45652 40.2317L8.94723 42.1706L50.3658 31.688L49.8751 29.7491ZM49.8751 29.7491L50.3658 31.688C51.4366 31.417 52.0849 30.3292 51.8139 29.2584L49.8751 29.7491ZM48.9012 25.9011L49.8751 29.7491L51.8139 29.2584L50.84 25.4104L48.9012 25.9011ZM50.8984 24.3641L49.6253 24.6863L50.116 26.6252L51.3891 26.303L50.8984 24.3641ZM51.6225 23.1493C51.758 23.6847 51.4338 24.2286 50.8984 24.3641L51.3891 26.303C52.9953 25.8965 53.9678 24.2648 53.5613 22.6586L51.6225 23.1493ZM49.7589 15.7862L51.6225 23.1493L53.5613 22.6586L51.6978 15.2955L49.7589 15.7862ZM48.5442 15.0622C49.0796 14.9266 49.6234 15.2508 49.7589 15.7862L51.6978 15.2955C51.2913 13.6893 49.6597 12.7168 48.0535 13.1233L48.5442 15.0622ZM47.1634 15.4116L48.5442 15.0622L48.0535 13.1233L46.6727 13.4727L47.1634 15.4116ZM35.7468 10.1563C39.9345 9.09644 44.182 11.1617 46.0215 14.8851L47.8146 13.9992C45.5661 9.44782 40.377 6.92139 35.2561 8.21743L35.7468 10.1563ZM26.0642 12.6069L35.7468 10.1563L35.2561 8.21743L25.5735 10.668L26.0642 12.6069ZM23.7386 7.49384L24.8494 11.8828L26.7883 11.3921L25.6775 7.00314L23.7386 7.49384ZM40.6493 20.3005C40.7664 20.7632 40.7742 21.2253 40.6903 21.6619L42.6543 22.0395C42.7924 21.3212 42.7787 20.5625 42.5882 19.8098L40.6493 20.3005ZM36.8335 18.026C38.5152 17.6004 40.2237 18.6187 40.6493 20.3005L42.5882 19.8098C41.8915 17.0572 39.0953 15.3905 36.3428 16.0872L36.8335 18.026ZM34.559 21.8419C34.1334 20.1601 35.1517 18.4517 36.8335 18.026L36.3428 16.0872C33.5902 16.7838 31.9235 19.58 32.6202 22.3326L34.559 21.8419ZM35.1115 22.9843C34.8593 22.6562 34.6678 22.2719 34.559 21.8419L32.6202 22.3326C32.7971 23.0316 33.1106 23.6629 33.5257 24.2031L35.1115 22.9843ZM35.2681 23.9073C35.5824 22.9559 36.4667 22.0862 37.7182 21.7695L37.2275 19.8306C35.3624 20.3026 33.9132 21.6327 33.3691 23.28L35.2681 23.9073ZM37.7182 21.7695C39.0117 21.4421 40.2388 21.8207 40.96 22.5526L42.3845 21.1488C41.1254 19.8711 39.1526 19.3434 37.2275 19.8306L37.7182 21.7695ZM14.2739 29.1018C14.6233 28.2016 15.4847 27.3965 16.677 27.0948L16.1863 25.1559C14.4062 25.6064 13.0075 26.8371 12.4094 28.3782L14.2739 29.1018ZM11.7442 27.6161C11.9027 28.2426 12.1711 28.8149 12.5242 29.3161L14.1591 28.164C13.9447 27.8597 13.7807 27.511 13.6831 27.1254L11.7442 27.6161ZM15.4668 21.3707C12.7142 22.0673 11.0475 24.8635 11.7442 27.6161L13.6831 27.1254C13.2574 25.4436 14.2757 23.7352 15.9575 23.3096L15.4668 21.3707ZM21.7122 25.0933C21.0156 22.3407 18.2194 20.674 15.4668 21.3707L15.9575 23.3096C17.6393 22.8839 19.3477 23.9022 19.7733 25.584L21.7122 25.0933ZM21.7309 27.5436C21.9174 26.7612 21.9224 25.9238 21.7122 25.0933L19.7733 25.584C19.9025 26.0942 19.8988 26.604 19.7854 27.0798L21.7309 27.5436ZM16.677 27.0948C18.0291 26.7526 19.3046 27.1814 20.0106 27.9759L21.5056 26.6474C20.2585 25.244 18.1943 24.6477 16.1863 25.1559L16.677 27.0948ZM9.22471 46.8847L19.6634 44.2428L19.1727 42.3039L8.73401 44.9459L9.22471 46.8847ZM9.74057 48.8337C9.76019 47.8987 9.83725 46.972 9.96911 46.0581L7.98961 45.7725C7.84618 46.7665 7.76235 47.7746 7.74101 48.7918L9.74057 48.8337ZM5.2276 51.8632L9.21881 49.6911L8.26277 47.9344L4.27157 50.1065L5.2276 51.8632ZM4.73619 52.9869C4.62411 52.5441 4.82637 52.0816 5.22761 51.8632L4.27157 50.1065C3.06786 50.7616 2.46109 52.1491 2.79732 53.4776L4.73619 52.9869ZM6.49537 59.9377L4.73619 52.9869L2.79732 53.4776L4.55651 60.4284L6.49537 59.9377ZM7.4589 60.6924C7.00332 60.6897 6.60715 60.3794 6.49537 59.9377L4.55651 60.4284C4.89184 61.7534 6.08035 62.6842 7.44708 62.6923L7.4589 60.6924ZM12.192 60.7203L7.4589 60.6924L7.44708 62.6923L12.1802 62.7203L12.192 60.7203ZM15.6789 64.7455C14.6958 63.6617 13.811 62.4776 13.0423 61.2037L11.3299 62.237C12.1661 63.6228 13.1286 64.9108 14.1976 66.0893L15.6789 64.7455ZM13.9365 72.3594L15.8975 65.6999L13.979 65.1349L12.018 71.7944L13.9365 72.3594ZM14.3838 73.5008C13.9916 73.2671 13.8076 72.7974 13.9365 72.3594L12.018 71.7944C11.6311 73.1084 12.1832 74.5175 13.3598 75.2188L14.3838 73.5008ZM20.5481 77.1751L14.3838 73.5008L13.3598 75.2188L19.5241 78.893L20.5481 77.1751ZM21.7606 77.0297C21.4364 77.348 20.9384 77.4077 20.5481 77.1751L19.5241 78.893C20.6949 79.5909 22.1892 79.4118 23.1618 78.4568L21.7606 77.0297ZM26.8576 72.0254L21.7607 77.0296L23.1618 78.4568L28.2588 73.4525L26.8576 72.0254ZM30.8093 72.221C29.7824 72.136 28.7685 71.982 27.7737 71.7624L27.3427 73.7155C28.4246 73.9542 29.5273 74.1217 30.6444 74.2141L30.8093 72.221ZM34.4454 77.9584L31.6052 72.7395L29.8485 73.6956L32.6887 78.9145L34.4454 77.9584ZM35.5691 78.4499C35.1263 78.5619 34.6638 78.3597 34.4454 77.9584L32.6887 78.9145C33.3438 80.1182 34.7313 80.725 36.0598 80.3887L35.5691 78.4499ZM42.52 76.6907L35.5691 78.4499L36.0598 80.3887L43.0107 78.6295L42.52 76.6907ZM43.2746 75.7272C43.2719 76.1827 42.9616 76.5789 42.52 76.6907L43.0107 78.6295C44.3356 78.2942 45.2665 77.1057 45.2746 75.739L43.2746 75.7272ZM43.3067 70.2978L43.2746 75.7272L45.2746 75.739L45.3067 70.3096L43.3067 70.2978ZM46.9468 67.3503C45.9725 68.1213 44.9292 68.8175 43.8232 69.4283L44.7901 71.1791C45.9933 70.5146 47.1282 69.7572 48.1878 68.9187L46.9468 67.3503ZM54.8084 68.779L47.7922 67.1601L47.3425 69.1089L54.3587 70.7278L54.8084 68.779ZM55.8922 68.3166C55.6697 68.6898 55.2317 68.8767 54.8083 68.779L54.3587 70.7278C55.6288 71.0208 56.9428 70.4602 57.6101 69.3406L55.8922 68.3166ZM59.6337 62.0394L55.8922 68.3166L57.6101 69.3406L61.3516 63.0634L59.6337 62.0394ZM59.5049 60.8442C59.8092 61.1695 59.8617 61.6568 59.6337 62.0394L61.3516 63.0634C62.0358 61.9156 61.8783 60.4536 60.9654 59.4778L59.5049 60.8442ZM55.1365 56.1751L59.5049 60.8442L60.9654 59.4778L56.597 54.8087L55.1365 56.1751ZM55.6497 50.3993C55.5734 52.048 55.3189 53.6677 54.9006 55.2339L56.8329 55.7499C57.2877 54.047 57.5646 52.2853 57.6475 50.4917L55.6497 50.3993ZM60.1955 47.3767L56.1706 49.5672L57.1266 51.3239L61.1515 49.1334L60.1955 47.3767ZM60.6869 46.253C60.799 46.6958 60.5967 47.1583 60.1955 47.3767L61.1515 49.1334C62.3552 48.4783 62.962 47.0908 62.6258 45.7623L60.6869 46.253ZM58.9277 39.3022L60.6869 46.253L62.6258 45.7623L60.8666 38.8115L58.9277 39.3022ZM57.9642 38.5475C58.4198 38.5502 58.8159 38.8605 58.9277 39.3022L60.8666 38.8115C60.5313 37.4865 59.3427 36.5557 57.976 36.5476L57.9642 38.5475ZM53.5582 38.5215L57.9642 38.5475L57.976 36.5476L53.5701 36.5215L53.5582 38.5215ZM51.147 35.6364C51.7078 36.391 52.2249 37.1844 52.6936 38.0136L54.4347 37.0294C53.9248 36.1273 53.3622 35.2643 52.7523 34.4435L51.147 35.6364ZM41.9263 38.6083L52.195 36.0094L51.7043 34.0705L41.4356 36.6694L41.9263 38.6083ZM48.973 46.3872C47.9422 42.3146 45.4694 38.9853 42.2397 36.8095L41.1223 38.4682C43.9596 40.3797 46.1287 43.3007 47.0341 46.8779L48.973 46.3872ZM37.0944 66.3159C45.8777 64.093 51.1959 55.1706 48.973 46.3872L47.0341 46.8779C48.9861 54.5905 44.3162 62.4251 36.6036 64.3771L37.0944 66.3159ZM17.1656 54.4373C19.3886 63.2207 28.311 68.5389 37.0944 66.3159L36.6036 64.3771C28.8911 66.329 21.0565 61.6592 19.1045 53.9466L17.1656 54.4373ZM18.532 42.8097C16.7262 46.2599 16.1349 50.3647 17.1656 54.4373L19.1045 53.9466C18.1991 50.3693 18.7176 46.7682 20.304 43.7371L18.532 42.8097Z" fill="#846BAE" mask="url(#path-1-inside-1_62_357)"/>
</svg>
