<svg width="43" height="60" viewBox="0 0 43 60" fill="none" xmlns="http://www.w3.org/2000/svg">
<path fill-rule="evenodd" clip-rule="evenodd" d="M18.2588 41.7796V38.8119L20.0639 40.617C20.4366 40.9897 20.9316 41.1653 21.4196 41.144C21.9078 41.1654 22.4029 40.9897 22.7757 40.617L24.6881 38.7046V41.7796C24.6881 42.6673 25.4077 43.3869 26.2954 43.3869C27.1831 43.3869 27.9027 42.6673 27.9027 41.7796V34.8146C27.9027 34.4055 27.7498 34.0321 27.4981 33.7484C27.4425 33.6715 27.3801 33.598 27.3108 33.5288C26.6058 32.8238 25.4627 32.8238 24.7577 33.5288L21.4198 36.8667L18.0819 33.5288C17.3768 32.8237 16.2338 32.8237 15.5288 33.5288C15.0743 33.9832 14.9128 34.6197 15.0442 35.2035L15.0442 41.7796C15.0442 42.6673 15.7638 43.3869 16.6515 43.3869C17.5392 43.3869 18.2588 42.6673 18.2588 41.7796Z" fill="url(#paint0_linear_46_51)"/>
<path fill-rule="evenodd" clip-rule="evenodd" d="M23.4585 5.537C24.2058 4.97585 24.6891 4.08231 24.6891 3.07587C24.6891 1.37712 23.312 0 21.6133 0C19.9145 0 18.5374 1.37712 18.5374 3.07587C18.5374 4.08207 19.0205 4.97541 19.7675 5.53659V8.89953H13.0827C9.40446 8.89953 6.3062 11.3828 5.37293 14.7642H4.54272C3.43815 14.7642 2.54272 15.6596 2.54272 16.7642V21.3767C2.54272 22.4812 3.43815 23.3767 4.54272 23.3767H5.00327V26.0677C5.00327 26.62 5.45098 27.0677 6.00327 27.0677H37.2227C37.775 27.0677 38.2227 26.62 38.2227 26.0677V23.3767H38.6836C39.7881 23.3767 40.6836 22.4812 40.6836 21.3767V16.7642C40.6836 15.6596 39.7881 14.7642 38.6836 14.7642H38.0174C37.0841 11.3828 33.9859 8.89953 30.3076 8.89953H23.4585V5.537ZM30.2256 20.9159C31.9244 20.9159 33.3015 19.5388 33.3015 17.8401C33.3015 16.1413 31.9244 14.7642 30.2256 14.7642C28.5268 14.7642 27.1497 16.1413 27.1497 17.8401C27.1497 19.5388 28.5268 20.9159 30.2256 20.9159ZM14.231 20.916C15.9298 20.916 17.3069 19.5389 17.3069 17.8401C17.3069 16.1413 15.9298 14.7642 14.231 14.7642C12.5323 14.7642 11.1551 16.1413 11.1551 17.8401C11.1551 19.5389 12.5323 20.916 14.231 20.916ZM13.0844 30.5127H4.82698C4.60439 31.1874 4.41623 31.8796 4.26477 32.5868L1.5042 33.2932C0.619104 33.5197 0 34.3172 0 35.2308V39.7589C0 40.67 0.615863 41.466 1.49784 41.6948L4.60275 42.5002C4.91914 43.5987 5.32567 44.6548 5.81309 45.6586L3.401 49.7355C2.93604 50.5214 3.0624 51.5225 3.70809 52.1681L6.91433 55.3744C7.55691 56.017 8.55192 56.1456 9.33675 55.6875L12.9889 53.5557C13.9373 54.1196 14.9387 54.5933 15.9833 54.9662L16.7656 58.0236C16.9921 58.9087 17.7896 59.5278 18.7032 59.5278H23.2313C24.1424 59.5278 24.9384 58.9119 25.1672 58.03L25.8504 55.3962C27.1541 55.0551 28.4015 54.5602 29.5749 53.9303L33.2463 55.8167C34.0192 56.2139 34.9601 56.0665 35.5745 55.452L38.8737 52.1529C39.5036 51.5229 39.641 50.5523 39.2106 49.7724L37.1882 46.1076C37.7846 44.9557 38.273 43.7307 38.6386 42.4483L41.496 41.7171C42.3811 41.4906 43.0002 40.6931 43.0002 39.7795V35.2514C43.0002 34.3403 42.3843 33.5443 41.5024 33.3155L38.9773 32.6605C38.8233 31.9277 38.6298 31.2109 38.3995 30.5127H30.1418C31.9537 32.537 33.0554 35.2103 33.0554 38.1408C33.0554 44.4602 27.9325 49.5831 21.6131 49.5831C15.2938 49.5831 10.1709 44.4602 10.1709 38.1408C10.1709 35.2103 11.2726 32.537 13.0844 30.5127Z" fill="url(#paint1_linear_46_51)"/>
<defs>
<linearGradient id="paint0_linear_46_51" x1="21.4513" y1="33" x2="21.4513" y2="43.3869" gradientUnits="userSpaceOnUse">
<stop stop-color="#494087"/>
<stop offset="1" stop-color="#A692C1"/>
</linearGradient>
<linearGradient id="paint1_linear_46_51" x1="21.5001" y1="0" x2="21.5001" y2="59.5278" gradientUnits="userSpaceOnUse">
<stop stop-color="#494087"/>
<stop offset="1" stop-color="#A692C1"/>
</linearGradient>
</defs>
</svg>
