<svg width="59" height="82" viewBox="0 0 59 82" fill="none" xmlns="http://www.w3.org/2000/svg">
<mask id="path-1-inside-1_62_275" fill="white">
<path fill-rule="evenodd" clip-rule="evenodd" d="M33.8759 4.27846C33.8759 5.65936 33.2127 6.88535 32.1874 7.6553V12.2691H42.5578C47.4122 12.2691 51.4587 15.7281 52.3672 20.3158H53.8215C54.926 20.3158 55.8215 21.2112 55.8215 22.3158V30.1328C55.8215 31.2374 54.926 32.1328 53.8215 32.1328H52.4449V36.1972C52.4449 36.7495 51.9972 37.1972 51.4449 37.1972H7.86501C7.31272 37.1972 6.86501 36.7495 6.86501 36.1972V32.1328H5.48904C4.38447 32.1328 3.48904 31.2374 3.48904 30.1328V22.3158C3.48904 21.2112 4.38447 20.3158 5.48904 20.3158H7.16864C8.07705 15.7281 12.1236 12.2691 16.978 12.2691H27.123V7.65481C26.0981 6.88483 25.4352 5.65906 25.4352 4.27846C25.4352 1.94762 27.3247 0.0581055 29.6555 0.0581055C31.9864 0.0581055 33.8759 1.94762 33.8759 4.27846ZM45.6926 24.5361C45.6926 26.867 43.8031 28.7565 41.4723 28.7565C39.1414 28.7565 37.2519 26.867 37.2519 24.5361C37.2519 22.2053 39.1414 20.3158 41.4723 20.3158C43.8031 20.3158 45.6926 22.2053 45.6926 24.5361ZM23.7465 24.5362C23.7465 26.867 21.857 28.7565 19.5261 28.7565C17.1953 28.7565 15.3058 26.867 15.3058 24.5362C15.3058 22.2053 17.1953 20.3158 19.5261 20.3158C21.857 20.3158 23.7465 22.2053 23.7465 24.5362ZM6.97945 41.9241H17.9531C15.4671 44.7017 13.9555 48.3696 13.9555 52.3906C13.9555 61.0613 20.9845 68.0903 29.6552 68.0903C38.3259 68.0903 45.3549 61.0613 45.3549 52.3906C45.3549 48.3696 43.8433 44.7017 41.3573 41.9241H52.1524C52.5337 42.8488 52.86 43.8019 53.127 44.7795L57.5022 45.9144C58.3842 46.1432 59.0001 46.9392 59.0001 47.8503V55.2167C59.0001 56.1304 58.381 56.9278 57.4959 57.1543L52.9427 58.3194C52.4337 59.9998 51.7485 61.6037 50.9085 63.1094L54.0709 68.84C54.5013 69.62 54.3639 70.5906 53.734 71.2205L48.4278 76.5267C47.8134 77.1411 46.8725 77.2885 46.0996 76.8914L39.5477 73.5249C38.3417 74.0656 37.0839 74.5114 35.7838 74.8527L34.387 80.2374C34.1582 81.1194 33.3622 81.7353 32.4511 81.7353H25.0847C24.171 81.7353 23.3736 81.1162 23.1471 80.2311L21.6386 74.3359C20.6017 73.9802 19.5963 73.5568 18.6278 73.0707L12.3153 76.7553C11.5305 77.2134 10.5354 77.0848 9.89287 76.4422L4.67963 71.229C4.03394 70.5833 3.90758 69.5822 4.37255 68.7963L7.99027 62.6817C7.2594 61.3076 6.65596 59.8554 6.1957 58.3409L1.49784 57.1223C0.615863 56.8936 0 56.0976 0 55.1864V47.82C0 46.9064 0.619105 46.1089 1.5042 45.8824L6.01928 44.7271C6.28358 43.7678 6.60494 42.8322 6.97945 41.9241ZM33.3446 44.7471L31.4224 47.4819L33.5116 50.6481C33.8975 51.2329 33.9292 51.9033 33.708 52.4709C33.6863 52.8186 33.5709 53.1701 33.3446 53.4921L30.9579 56.8877C30.1614 58.021 28.4819 58.021 27.6854 56.8877L25.2988 53.4921C25.0727 53.1705 24.9574 52.8195 24.9355 52.4722C24.7137 51.9044 24.7451 51.2334 25.1313 50.6481L27.2207 47.4815L25.2988 44.7471C24.3674 43.4219 25.3153 41.5971 26.9351 41.5971H31.7083C33.3281 41.5971 34.276 43.4219 33.3446 44.7471Z"/>
</mask>
<path fill-rule="evenodd" clip-rule="evenodd" d="M33.8759 4.27846C33.8759 5.65936 33.2127 6.88535 32.1874 7.6553V12.2691H42.5578C47.4122 12.2691 51.4587 15.7281 52.3672 20.3158H53.8215C54.926 20.3158 55.8215 21.2112 55.8215 22.3158V30.1328C55.8215 31.2374 54.926 32.1328 53.8215 32.1328H52.4449V36.1972C52.4449 36.7495 51.9972 37.1972 51.4449 37.1972H7.86501C7.31272 37.1972 6.86501 36.7495 6.86501 36.1972V32.1328H5.48904C4.38447 32.1328 3.48904 31.2374 3.48904 30.1328V22.3158C3.48904 21.2112 4.38447 20.3158 5.48904 20.3158H7.16864C8.07705 15.7281 12.1236 12.2691 16.978 12.2691H27.123V7.65481C26.0981 6.88483 25.4352 5.65906 25.4352 4.27846C25.4352 1.94762 27.3247 0.0581055 29.6555 0.0581055C31.9864 0.0581055 33.8759 1.94762 33.8759 4.27846ZM45.6926 24.5361C45.6926 26.867 43.8031 28.7565 41.4723 28.7565C39.1414 28.7565 37.2519 26.867 37.2519 24.5361C37.2519 22.2053 39.1414 20.3158 41.4723 20.3158C43.8031 20.3158 45.6926 22.2053 45.6926 24.5361ZM23.7465 24.5362C23.7465 26.867 21.857 28.7565 19.5261 28.7565C17.1953 28.7565 15.3058 26.867 15.3058 24.5362C15.3058 22.2053 17.1953 20.3158 19.5261 20.3158C21.857 20.3158 23.7465 22.2053 23.7465 24.5362ZM6.97945 41.9241H17.9531C15.4671 44.7017 13.9555 48.3696 13.9555 52.3906C13.9555 61.0613 20.9845 68.0903 29.6552 68.0903C38.3259 68.0903 45.3549 61.0613 45.3549 52.3906C45.3549 48.3696 43.8433 44.7017 41.3573 41.9241H52.1524C52.5337 42.8488 52.86 43.8019 53.127 44.7795L57.5022 45.9144C58.3842 46.1432 59.0001 46.9392 59.0001 47.8503V55.2167C59.0001 56.1304 58.381 56.9278 57.4959 57.1543L52.9427 58.3194C52.4337 59.9998 51.7485 61.6037 50.9085 63.1094L54.0709 68.84C54.5013 69.62 54.3639 70.5906 53.734 71.2205L48.4278 76.5267C47.8134 77.1411 46.8725 77.2885 46.0996 76.8914L39.5477 73.5249C38.3417 74.0656 37.0839 74.5114 35.7838 74.8527L34.387 80.2374C34.1582 81.1194 33.3622 81.7353 32.4511 81.7353H25.0847C24.171 81.7353 23.3736 81.1162 23.1471 80.2311L21.6386 74.3359C20.6017 73.9802 19.5963 73.5568 18.6278 73.0707L12.3153 76.7553C11.5305 77.2134 10.5354 77.0848 9.89287 76.4422L4.67963 71.229C4.03394 70.5833 3.90758 69.5822 4.37255 68.7963L7.99027 62.6817C7.2594 61.3076 6.65596 59.8554 6.1957 58.3409L1.49784 57.1223C0.615863 56.8936 0 56.0976 0 55.1864V47.82C0 46.9064 0.619105 46.1089 1.5042 45.8824L6.01928 44.7271C6.28358 43.7678 6.60494 42.8322 6.97945 41.9241ZM33.3446 44.7471L31.4224 47.4819L33.5116 50.6481C33.8975 51.2329 33.9292 51.9033 33.708 52.4709C33.6863 52.8186 33.5709 53.1701 33.3446 53.4921L30.9579 56.8877C30.1614 58.021 28.4819 58.021 27.6854 56.8877L25.2988 53.4921C25.0727 53.1705 24.9574 52.8195 24.9355 52.4722C24.7137 51.9044 24.7451 51.2334 25.1313 50.6481L27.2207 47.4815L25.2988 44.7471C24.3674 43.4219 25.3153 41.5971 26.9351 41.5971H31.7083C33.3281 41.5971 34.276 43.4219 33.3446 44.7471Z" fill="white"/>
<path d="M32.1874 7.6553L31.5869 6.85568L31.1874 7.15569V7.6553H32.1874ZM32.1874 12.2691H31.1874V13.2691H32.1874V12.2691ZM52.3672 20.3158L51.3862 20.51L51.5457 21.3158H52.3672V20.3158ZM52.4449 32.1328V31.1328H51.4449V32.1328H52.4449ZM6.86501 32.1328H7.86501V31.1328H6.86501V32.1328ZM7.16864 20.3158V21.3158H7.99005L8.14959 20.51L7.16864 20.3158ZM27.123 12.2691V13.2691H28.123V12.2691H27.123ZM27.123 7.65481H28.123V7.15533L27.7237 6.85531L27.123 7.65481ZM17.9531 41.9241L18.6982 42.5911L20.1901 40.9241H17.9531V41.9241ZM6.97945 41.9241V40.9241H6.31017L6.05499 41.5429L6.97945 41.9241ZM41.3573 41.9241V40.9241H39.1203L40.6122 42.5911L41.3573 41.9241ZM52.1524 41.9241L53.0769 41.5429L52.8217 40.9241H52.1524V41.9241ZM53.127 44.7795L52.1623 45.043L52.315 45.602L52.8759 45.7475L53.127 44.7795ZM57.5022 45.9144L57.2511 46.8824H57.2511L57.5022 45.9144ZM57.4959 57.1543L57.7438 58.1231L57.4959 57.1543ZM52.9427 58.3194L52.6948 57.3506L52.1489 57.4903L51.9856 58.0295L52.9427 58.3194ZM50.9085 63.1094L50.0352 62.6223L49.7649 63.1068L50.033 63.5926L50.9085 63.1094ZM54.0709 68.84L53.1953 69.3232L53.1953 69.3232L54.0709 68.84ZM53.734 71.2205L53.0269 70.5134H53.0269L53.734 71.2205ZM46.0996 76.8914L46.5566 76.0019H46.5566L46.0996 76.8914ZM39.5477 73.5249L40.0047 72.6354L39.5772 72.4157L39.1385 72.6124L39.5477 73.5249ZM35.7838 74.8527L35.5299 73.8854L34.9629 74.0343L34.8158 74.6016L35.7838 74.8527ZM34.387 80.2374L33.419 79.9864L34.387 80.2374ZM23.1471 80.2311L22.1783 80.479L23.1471 80.2311ZM21.6386 74.3359L22.6073 74.088L22.4735 73.5651L21.963 73.39L21.6386 74.3359ZM18.6278 73.0707L19.0762 72.177L18.5918 71.9339L18.1237 72.2071L18.6278 73.0707ZM12.3153 76.7553L11.8112 75.8916H11.8112L12.3153 76.7553ZM9.89287 76.4422L9.18577 77.1493H9.18577L9.89287 76.4422ZM4.67963 71.229L3.97252 71.9361L3.97252 71.9361L4.67963 71.229ZM4.37255 68.7963L3.5119 68.2871H3.5119L4.37255 68.7963ZM7.99027 62.6817L8.85092 63.1909L9.13678 62.7077L8.87315 62.2121L7.99027 62.6817ZM6.1957 58.3409L7.15249 58.0501L6.98947 57.5137L6.44677 57.3729L6.1957 58.3409ZM1.49784 57.1223L1.24676 58.0903H1.24676L1.49784 57.1223ZM1.5042 45.8824L1.25629 44.9136H1.25629L1.5042 45.8824ZM6.01928 44.7271L6.26718 45.6958L6.82924 45.552L6.98335 44.9927L6.01928 44.7271ZM31.4224 47.4819L30.6043 46.9068L30.2126 47.4641L30.5877 48.0326L31.4224 47.4819ZM33.3446 44.7471L34.1627 45.3222V45.3222L33.3446 44.7471ZM33.5116 50.6481L34.3462 50.0973V50.0973L33.5116 50.6481ZM33.708 52.4709L32.7762 52.1078L32.7196 52.253L32.7099 52.4086L33.708 52.4709ZM33.3446 53.4921L32.5264 52.9171L33.3446 53.4921ZM30.9579 56.8877L30.1398 56.3127L30.9579 56.8877ZM27.6854 56.8877L28.5035 56.3127L27.6854 56.8877ZM25.2988 53.4921L26.1169 52.9171L25.2988 53.4921ZM24.9355 52.4722L25.9335 52.4092L25.9237 52.2536L25.8669 52.1084L24.9355 52.4722ZM25.1313 50.6481L24.2967 50.0973L25.1313 50.6481ZM27.2207 47.4815L28.0554 48.0323L28.4305 47.4638L28.0388 46.9065L27.2207 47.4815ZM25.2988 44.7471L26.1169 44.1721L25.2988 44.7471ZM32.7879 8.45493C34.0539 7.50423 34.8759 5.9872 34.8759 4.27846H32.8759C32.8759 5.33151 32.3715 6.26647 31.5869 6.85568L32.7879 8.45493ZM33.1874 12.2691V7.6553H31.1874V12.2691H33.1874ZM42.5578 11.2691H32.1874V13.2691H42.5578V11.2691ZM53.3481 20.1215C52.3488 15.0746 47.8988 11.2691 42.5578 11.2691V13.2691C46.9256 13.2691 50.5687 16.3815 51.3862 20.51L53.3481 20.1215ZM53.8215 19.3158H52.3672V21.3158H53.8215V19.3158ZM56.8215 22.3158C56.8215 20.6589 55.4783 19.3158 53.8215 19.3158V21.3158C54.3738 21.3158 54.8215 21.7635 54.8215 22.3158H56.8215ZM56.8215 30.1328V22.3158H54.8215V30.1328H56.8215ZM53.8215 33.1328C55.4783 33.1328 56.8215 31.7896 56.8215 30.1328H54.8215C54.8215 30.6851 54.3738 31.1328 53.8215 31.1328V33.1328ZM52.4449 33.1328H53.8215V31.1328H52.4449V33.1328ZM53.4449 36.1972V32.1328H51.4449V36.1972H53.4449ZM51.4449 38.1972C52.5494 38.1972 53.4449 37.3018 53.4449 36.1972H51.4449V38.1972ZM7.86501 38.1972H51.4449V36.1972H7.86501V38.1972ZM5.86501 36.1972C5.86501 37.3018 6.76044 38.1972 7.86501 38.1972V36.1972H7.86501H5.86501ZM5.86501 32.1328V36.1972H7.86501V32.1328H5.86501ZM5.48904 33.1328H6.86501V31.1328H5.48904V33.1328ZM2.48904 30.1328C2.48904 31.7896 3.83219 33.1328 5.48904 33.1328V31.1328C4.93675 31.1328 4.48904 30.6851 4.48904 30.1328H2.48904ZM2.48904 22.3158V30.1328H4.48904V22.3158H2.48904ZM5.48904 19.3158C3.83219 19.3158 2.48904 20.6589 2.48904 22.3158H4.48904C4.48904 21.7635 4.93675 21.3158 5.48904 21.3158V19.3158ZM7.16864 19.3158H5.48904V21.3158H7.16864V19.3158ZM16.978 11.2691C11.637 11.2691 7.18703 15.0746 6.18769 20.1215L8.14959 20.51C8.96707 16.3815 12.6101 13.2691 16.978 13.2691V11.2691ZM27.123 11.2691H16.978V13.2691H27.123V11.2691ZM26.123 7.65481V12.2691H28.123V7.65481H26.123ZM24.4352 4.27846C24.4352 5.98684 25.2569 7.50359 26.5224 8.45432L27.7237 6.85531C26.9394 6.26607 26.4352 5.33129 26.4352 4.27846H24.4352ZM29.6555 -0.941895C26.7724 -0.941895 24.4352 1.39534 24.4352 4.27846H26.4352C26.4352 2.49991 27.877 1.05811 29.6555 1.05811V-0.941895ZM34.8759 4.27846C34.8759 1.39534 32.5387 -0.941895 29.6555 -0.941895V1.05811C31.4341 1.05811 32.8759 2.49991 32.8759 4.27846H34.8759ZM41.4723 29.7565C44.3554 29.7565 46.6926 27.4192 46.6926 24.5361H44.6926C44.6926 26.3147 43.2508 27.7565 41.4723 27.7565V29.7565ZM36.2519 24.5361C36.2519 27.4192 38.5891 29.7565 41.4723 29.7565V27.7565C39.6937 27.7565 38.2519 26.3147 38.2519 24.5361H36.2519ZM41.4723 19.3158C38.5891 19.3158 36.2519 21.653 36.2519 24.5361H38.2519C38.2519 22.7576 39.6937 21.3158 41.4723 21.3158V19.3158ZM46.6926 24.5361C46.6926 21.653 44.3554 19.3158 41.4723 19.3158V21.3158C43.2508 21.3158 44.6926 22.7576 44.6926 24.5361H46.6926ZM19.5261 29.7565C22.4093 29.7565 24.7465 27.4193 24.7465 24.5362H22.7465C22.7465 26.3147 21.3047 27.7565 19.5261 27.7565V29.7565ZM14.3058 24.5362C14.3058 27.4193 16.643 29.7565 19.5261 29.7565V27.7565C17.7476 27.7565 16.3058 26.3147 16.3058 24.5362H14.3058ZM19.5261 19.3158C16.643 19.3158 14.3058 21.653 14.3058 24.5362H16.3058C16.3058 22.7576 17.7476 21.3158 19.5261 21.3158V19.3158ZM24.7465 24.5362C24.7465 21.653 22.4093 19.3158 19.5261 19.3158V21.3158C21.3047 21.3158 22.7465 22.7576 22.7465 24.5362H24.7465ZM17.9531 40.9241H6.97945V42.9241H17.9531V40.9241ZM14.9555 52.3906C14.9555 48.6251 16.37 45.1924 18.6982 42.5911L17.2079 41.2572C14.5642 44.2111 12.9555 48.1142 12.9555 52.3906H14.9555ZM29.6552 67.0903C21.5368 67.0903 14.9555 60.509 14.9555 52.3906H12.9555C12.9555 61.6136 20.4322 69.0903 29.6552 69.0903V67.0903ZM44.3549 52.3906C44.3549 60.509 37.7736 67.0903 29.6552 67.0903V69.0903C38.8782 69.0903 46.3549 61.6136 46.3549 52.3906H44.3549ZM40.6122 42.5911C42.9404 45.1924 44.3549 48.6251 44.3549 52.3906H46.3549C46.3549 48.1142 44.7462 44.2111 42.1025 41.2572L40.6122 42.5911ZM52.1524 40.9241H41.3573V42.9241H52.1524V40.9241ZM54.0916 44.516C53.8136 43.4981 53.4739 42.5056 53.0769 41.5429L51.2279 42.3054C51.5936 43.1919 51.9063 44.1057 52.1623 45.043L54.0916 44.516ZM57.7533 44.9464L53.378 43.8115L52.8759 45.7475L57.2511 46.8824L57.7533 44.9464ZM60.0001 47.8503C60.0001 46.4836 59.0763 45.2896 57.7533 44.9464L57.2511 46.8824C57.6921 46.9967 58.0001 47.3947 58.0001 47.8503H60.0001ZM60.0001 55.2167V47.8503H58.0001V55.2167H60.0001ZM57.7438 58.1231C59.0714 57.7834 60.0001 56.5872 60.0001 55.2167H58.0001C58.0001 55.6735 57.6905 56.0723 57.248 56.1855L57.7438 58.1231ZM53.1906 59.2882L57.7438 58.1231L57.248 56.1855L52.6948 57.3506L53.1906 59.2882ZM51.7818 63.5966C52.6563 62.0291 53.3697 60.3591 53.8997 58.6093L51.9856 58.0295C51.4977 59.6405 50.8407 61.1783 50.0352 62.6223L51.7818 63.5966ZM54.9464 68.3568L51.7841 62.6263L50.033 63.5926L53.1953 69.3232L54.9464 68.3568ZM54.4411 71.9276C55.386 70.9827 55.592 69.5268 54.9464 68.3568L53.1953 69.3232C53.4105 69.7131 53.3419 70.1985 53.0269 70.5134L54.4411 71.9276ZM49.1349 77.2338L54.4411 71.9276L53.0269 70.5134L47.7207 75.8196L49.1349 77.2338ZM45.6426 77.7808C46.8019 78.3765 48.2133 78.1555 49.1349 77.2338L47.7207 75.8196C47.4135 76.1268 46.9431 76.2005 46.5566 76.0019L45.6426 77.7808ZM39.0907 74.4143L45.6426 77.7808L46.5566 76.0019L40.0047 72.6354L39.0907 74.4143ZM36.0376 75.8199C37.3915 75.4645 38.7012 75.0004 39.9568 74.4373L39.1385 72.6124C37.9823 73.1309 36.7763 73.5582 35.5299 73.8854L36.0376 75.8199ZM35.355 80.4885L36.7517 75.1038L34.8158 74.6016L33.419 79.9864L35.355 80.4885ZM32.4511 82.7353C33.8178 82.7353 35.0118 81.8115 35.355 80.4885L33.419 79.9864C33.3046 80.4274 32.9067 80.7353 32.4511 80.7353V82.7353ZM25.0847 82.7353H32.4511V80.7353H25.0847V82.7353ZM22.1783 80.479C22.518 81.8066 23.7142 82.7353 25.0847 82.7353V80.7353C24.6279 80.7353 24.2291 80.4257 24.1159 79.9832L22.1783 80.479ZM20.6698 74.5838L22.1783 80.479L24.1159 79.9832L22.6073 74.088L20.6698 74.5838ZM18.1793 73.9645C19.1877 74.4705 20.2344 74.9115 21.3141 75.2818L21.963 73.39C20.9689 73.049 20.005 72.643 19.0762 72.177L18.1793 73.9645ZM12.8194 77.6189L19.1319 73.9344L18.1237 72.2071L11.8112 75.8916L12.8194 77.6189ZM9.18577 77.1493C10.1496 78.1132 11.6422 78.3061 12.8194 77.6189L11.8112 75.8916C11.4188 76.1207 10.9213 76.0564 10.6 75.7351L9.18577 77.1493ZM3.97252 71.9361L9.18577 77.1493L10.6 75.7351L5.38674 70.5219L3.97252 71.9361ZM3.5119 68.2871C2.81444 69.466 3.00399 70.9675 3.97252 71.9361L5.38674 70.5219C5.06389 70.199 5.00071 69.6985 5.2332 69.3055L3.5119 68.2871ZM7.12962 62.1725L3.5119 68.2871L5.2332 69.3055L8.85092 63.1909L7.12962 62.1725ZM5.2389 58.6317C5.71817 60.2087 6.3465 61.7207 7.10739 63.1513L8.87315 62.2121C8.1723 60.8944 7.59374 59.5021 7.15249 58.0501L5.2389 58.6317ZM1.24676 58.0903L5.94462 59.3089L6.44677 57.3729L1.74892 56.1544L1.24676 58.0903ZM-1 55.1864C-1 56.5531 -0.0762072 57.7471 1.24676 58.0903L1.74892 56.1544C1.30793 56.04 1 55.642 1 55.1864H-1ZM-1 47.82V55.1864H1V47.82H-1ZM1.25629 44.9136C-0.0713422 45.2534 -1 46.4496 -1 47.82H1C1 47.3632 1.30955 46.9644 1.7521 46.8512L1.25629 44.9136ZM5.77138 43.7583L1.25629 44.9136L1.7521 46.8512L6.26718 45.6958L5.77138 43.7583ZM6.05499 41.5429C5.66504 42.4884 5.33042 43.4626 5.05521 44.4614L6.98335 44.9927C7.23675 44.073 7.54483 43.1761 7.90391 42.3054L6.05499 41.5429ZM32.2406 48.0569L34.1627 45.3222L32.5264 44.1721L30.6043 46.9068L32.2406 48.0569ZM34.3462 50.0973L32.2571 46.9311L30.5877 48.0326L32.6769 51.1988L34.3462 50.0973ZM34.6397 52.834C34.9707 51.9848 34.9228 50.9711 34.3462 50.0973L32.6769 51.1988C32.8722 51.4948 32.8877 51.8218 32.7762 52.1078L34.6397 52.834ZM32.7099 52.4086C32.6996 52.5747 32.6451 52.7483 32.5264 52.9171L34.1627 54.0672C34.4967 53.5919 34.673 53.0624 34.706 52.5332L32.7099 52.4086ZM32.5264 52.9171L30.1398 56.3127L31.7761 57.4628L34.1627 54.0672L32.5264 52.9171ZM30.1398 56.3127C29.7416 56.8793 28.9018 56.8793 28.5035 56.3127L26.8673 57.4628C28.0621 59.1626 30.5813 59.1626 31.7761 57.4628L30.1398 56.3127ZM28.5035 56.3127L26.1169 52.9171L24.4807 54.0672L26.8673 57.4628L28.5035 56.3127ZM26.1169 52.9171C25.9984 52.7485 25.9439 52.5751 25.9335 52.4092L23.9374 52.5352C23.9708 53.0638 24.1471 53.5925 24.4807 54.0672L26.1169 52.9171ZM24.2967 50.0973C23.7197 50.9718 23.6722 51.9864 24.004 52.836L25.8669 52.1084C25.7552 51.8224 25.7706 51.495 25.966 51.1988L24.2967 50.0973ZM26.386 46.9308L24.2967 50.0973L25.966 51.1988L28.0554 48.0323L26.386 46.9308ZM24.4807 45.3222L26.4026 48.0566L28.0388 46.9065L26.1169 44.1721L24.4807 45.3222ZM26.9351 40.5971C24.5054 40.5971 23.0835 43.3344 24.4807 45.3222L26.1169 44.1721C25.6512 43.5095 26.1252 42.5971 26.9351 42.5971V40.5971ZM31.7083 40.5971H26.9351V42.5971H31.7083V40.5971ZM34.1627 45.3222C35.5598 43.3344 34.138 40.5971 31.7083 40.5971V42.5971C32.5182 42.5971 32.9921 43.5095 32.5264 44.1721L34.1627 45.3222Z" fill="#846BAE" mask="url(#path-1-inside-1_62_275)"/>
</svg>
