<svg width="44" height="60" viewBox="0 0 44 60" fill="none" xmlns="http://www.w3.org/2000/svg">
<path fill-rule="evenodd" clip-rule="evenodd" d="M23.9585 5.537C24.7058 4.97585 25.1891 4.08231 25.1891 3.07587C25.1891 1.37712 23.812 0 22.1133 0C20.4145 0 19.0374 1.37712 19.0374 3.07587C19.0374 4.08207 19.5205 4.97541 20.2675 5.53659V8.89953H13.5827C9.90446 8.89953 6.8062 11.3828 5.87293 14.7642H5.04272C3.93815 14.7642 3.04272 15.6596 3.04272 16.7642V21.3767C3.04272 22.4812 3.93815 23.3767 5.04272 23.3767H5.50327V26.0677C5.50327 26.62 5.95098 27.0677 6.50327 27.0677H37.7227C38.275 27.0677 38.7227 26.62 38.7227 26.0677V23.3767H39.1836C40.2881 23.3767 41.1836 22.4812 41.1836 21.3767V16.7642C41.1836 15.6596 40.2881 14.7642 39.1836 14.7642H38.5174C37.5841 11.3828 34.4859 8.89953 30.8076 8.89953H23.9585V5.537ZM30.7256 20.9159C32.4244 20.9159 33.8015 19.5388 33.8015 17.8401C33.8015 16.1413 32.4244 14.7642 30.7256 14.7642C29.0268 14.7642 27.6497 16.1413 27.6497 17.8401C27.6497 19.5388 29.0268 20.9159 30.7256 20.9159ZM14.731 20.916C16.4298 20.916 17.8069 19.5389 17.8069 17.8401C17.8069 16.1413 16.4298 14.7642 14.731 14.7642C13.0323 14.7642 11.6551 16.1413 11.6551 17.8401C11.6551 19.5389 13.0323 20.916 14.731 20.916ZM13.5844 30.5127H5.32595C5.10331 31.1875 4.91513 31.8798 4.76367 32.5871L2.00391 33.2932C1.11893 33.5197 0.500028 34.3172 0.5 35.2307V39.759C0.500075 40.6701 1.11612 41.4658 1.99805 41.6946L5.10254 42.5002C5.41877 43.5982 5.82639 44.6531 6.31348 45.6565L3.90137 49.7356C3.4364 50.5215 3.56232 51.5225 4.20801 52.1682L7.41406 55.3743C8.05664 56.0168 9.05209 56.1458 9.83691 55.6877L13.4893 53.5539C14.4373 54.1177 15.4382 54.5912 16.4824 54.9641L17.2656 58.0237C17.4921 58.9087 18.2896 59.5276 19.2031 59.5276H23.7314C24.6425 59.5275 25.4382 58.9114 25.667 58.0295L26.3506 55.3938C27.6537 55.0527 28.9003 54.5585 30.0732 53.9289L33.7461 55.8166C34.5189 56.2137 35.4598 56.0666 36.0742 55.4524L39.374 52.1526C40.0035 51.5228 40.141 50.5524 39.7109 49.7727L37.6865 46.1057C38.2828 44.9539 38.7722 43.7298 39.1377 42.4475L41.9961 41.717C42.8811 41.4905 43.5 40.6931 43.5 39.7795V35.2512C43.4999 34.3401 42.8839 33.5444 42.002 33.3157L39.4756 32.6594C39.3215 31.927 39.1282 31.2105 38.898 30.5127H30.6418C32.4537 32.537 33.5554 35.2103 33.5554 38.1408C33.5554 44.4602 28.4325 49.5831 22.1131 49.5831C15.7938 49.5831 10.6709 44.4602 10.6709 38.1408C10.6709 35.2103 11.7726 32.537 13.5844 30.5127Z" fill="white"/>
</svg>
